# xmcd
#
# Track frame offsets: 
#        150
#        16938
#        29336
#        44804
#        57212
#        69579
#        88693
#        100651
#        112485
#        126971
#        145549
#        164043
#
# Disc length: 2375 seconds
#
# Revision: 0
# Processed by: cddbd v1.5.2PL0 Copyright (c) Steve Scherf et al.
# Submitted via: ExactAudioCopy v1.0b1
#
DISCID=ad09450c
DTITLE=Hervin Jakončič - Začarana dežela
DYEAR=2010
DGENRE=Country
TTITLE0=Začarana dezela
TTITLE1=Danes vračam se
TTITLE2=Moj cvet
TTITLE3=Hej zaplešiva
TTITLE4=Ognjen obroč
TTITLE5=Večerni zvon
TTITLE6=Do tvojega srca
TTITLE7=Adios amigo
TTITLE8=Jaz se ne bom kesal
TTITLE9=Tebi
TTITLE10=Ostani zdrav, prijatelj naš
TTITLE11=Beli Božič
EXTD=
EXTT0=
EXTT1=
EXTT2=
EXTT3=
EXTT4=
EXTT5=
EXTT6=
EXTT7=
EXTT8=
EXTT9=
EXTT10=
EXTT11=
PLAYORDER=
